<?xml version="1.0" encoding="UTF-8"?>
<svg id="Layer_1" xmlns="http://www.w3.org/2000/svg" width="16" height="16" viewBox="0 0 16 16">
  <defs>
    <style>
      .cls-1 {
        fill: #fcee00;
        fill-rule: evenodd;
      }
    </style>
  </defs>
  <path class="cls-1" d="M7.81,1.22c5.21.03,8.59,5.47,6.37,10.17-1,2.1-3.89,3.92-6.21,3.91-5.22-.02-8.65-5.38-6.42-10.08,1-2.1,3.41-4.01,6.27-4ZM9.45,13.16c-.05.45-.3.7-.73.78-.71.13-1.29.18-2.08,0s-1.51-.51-2.13-.96c-.34-.25-.46-.71-.27-1.08l3.6-6.73c.3-.59.57-1.07.98-.98.41.09.55.67.57,1.33l.07,7.65ZM11.16,12.99c1.32-.99,2.39-2.65,2.45-4.53.08-2.26-1.27-4.55-3.33-5.49-3.46-1.58-7.31.44-8.01,4.08-.26,1.38-.1,2.74.49,3.9l4.34-6.67c.48-.78,1.02-1.45,1.94-1.26.91.23,1.15,1.06,1.25,1.98l.78,7.93"/>
</svg>